<?xml version="1.0" encoding="us-ascii" standalone="no"?><svg xmlns="http://www.w3.org/2000/svg" xmlns:xlink="http://www.w3.org/1999/xlink" contentStyleType="text/css" height="1196px" preserveAspectRatio="none" style="width:3771px;height:1196px;background:#FFFFFF;" version="1.1" viewBox="0 0 3771 1196" width="3771px" zoomAndPan="magnify"><defs/><g><!--cluster places--><g id="cluster_places"><path d="M821.5,351.5 L868.5,351.5 A3.75,3.75 0 0 1 871,354 L878,375.1094 L1395.5,375.1094 A2.5,2.5 0 0 1 1398,377.6094 L1398,891.5 A2.5,2.5 0 0 1 1395.5,894 L821.5,894 A2.5,2.5 0 0 1 819,891.5 L819,354 A2.5,2.5 0 0 1 821.5,351.5 " fill="none" style="stroke:#000000;stroke-width:1.5;"/><line style="stroke:#000000;stroke-width:1.5;" x1="819" x2="878" y1="375.1094" y2="375.1094"/><text fill="#000000" font-family="sans-serif" font-size="14" font-weight="bold" lengthAdjust="spacing" textLength="46" x="823" y="368.0332">places</text></g><!--cluster interfaces--><g id="cluster_interfaces"><path d="M923.5,395.5 L995.5,395.5 A3.75,3.75 0 0 1 998,398 L1005,419.1094 L1108.5,419.1094 A2.5,2.5 0 0 1 1111,421.6094 L1111,528 A2.5,2.5 0 0 1 1108.5,530.5 L923.5,530.5 A2.5,2.5 0 0 1 921,528 L921,398 A2.5,2.5 0 0 1 923.5,395.5 " fill="none" style="stroke:#000000;stroke-width:1.5;"/><line style="stroke:#000000;stroke-width:1.5;" x1="921" x2="1005" y1="419.1094" y2="419.1094"/><text fill="#000000" font-family="sans-serif" font-size="14" font-weight="bold" lengthAdjust="spacing" textLength="71" x="925" y="412.0332">interfaces</text></g><!--cluster shorties--><g id="cluster_shorties"><path d="M1684.5,272 L1743.5,272 A3.75,3.75 0 0 1 1746,274.5 L1753,295.6094 L3761.5,295.6094 A2.5,2.5 0 0 1 3764,298.1094 L3764,935.5 A2.5,2.5 0 0 1 3761.5,938 L1684.5,938 A2.5,2.5 0 0 1 1682,935.5 L1682,274.5 A2.5,2.5 0 0 1 1684.5,272 " fill="none" style="stroke:#000000;stroke-width:1.5;"/><line style="stroke:#000000;stroke-width:1.5;" x1="1682" x2="1753" y1="295.6094" y2="295.6094"/><text fill="#000000" font-family="sans-serif" font-size="14" font-weight="bold" lengthAdjust="spacing" textLength="58" x="1686" y="288.5332">shorties</text></g><!--cluster interfaces--><g id="cluster_interfaces"><path d="M2288.5,334 L2360.5,334 A3.75,3.75 0 0 1 2363,336.5 L2370,357.6094 L3737.5,357.6094 A2.5,2.5 0 0 1 3740,360.1094 L3740,589.5 A2.5,2.5 0 0 1 3737.5,592 L2288.5,592 A2.5,2.5 0 0 1 2286,589.5 L2286,336.5 A2.5,2.5 0 0 1 2288.5,334 " fill="none" style="stroke:#000000;stroke-width:1.5;"/><line style="stroke:#000000;stroke-width:1.5;" x1="2286" x2="2370" y1="357.6094" y2="357.6094"/><text fill="#000000" font-family="sans-serif" font-size="14" font-weight="bold" lengthAdjust="spacing" textLength="71" x="2290" y="350.5332">interfaces</text></g><!--cluster exceptions--><g id="cluster_exceptions"><path d="M3159.5,1054 L3238.5,1054 A3.75,3.75 0 0 1 3241,1056.5 L3248,1077.6094 L3494.5,1077.6094 A2.5,2.5 0 0 1 3497,1080.1094 L3497,1186.5 A2.5,2.5 0 0 1 3494.5,1189 L3159.5,1189 A2.5,2.5 0 0 1 3157,1186.5 L3157,1056.5 A2.5,2.5 0 0 1 3159.5,1054 " fill="none" style="stroke:#000000;stroke-width:1.5;"/><line style="stroke:#000000;stroke-width:1.5;" x1="3157" x2="3248" y1="1077.6094" y2="1077.6094"/><text fill="#000000" font-family="sans-serif" font-size="14" font-weight="bold" lengthAdjust="spacing" textLength="78" x="3161" y="1070.5332">exceptions</text></g><!--cluster enums--><g id="cluster_enums"><path d="M8.5,6 L56.5,6 A3.75,3.75 0 0 1 59,8.5 L66,29.6094 L635.5,29.6094 A2.5,2.5 0 0 1 638,32.1094 L638,651.5 A2.5,2.5 0 0 1 635.5,654 L8.5,654 A2.5,2.5 0 0 1 6,651.5 L6,8.5 A2.5,2.5 0 0 1 8.5,6 " fill="none" style="stroke:#000000;stroke-width:1.5;"/><line style="stroke:#000000;stroke-width:1.5;" x1="6" x2="66" y1="29.6094" y2="29.6094"/><text fill="#000000" font-family="sans-serif" font-size="14" font-weight="bold" lengthAdjust="spacing" textLength="47" x="10" y="22.5332">enums</text></g><!--class FilledPlace--><g id="elem_FilledPlace"><rect codeLine="117" fill="#F1F1F1" height="136.0469" id="FilledPlace" rx="2.5" ry="2.5" style="stroke:#181818;stroke-width:0.5;" width="314" x="835" y="742"/><ellipse cx="953.25" cy="758" fill="#ADD1B2" rx="11" ry="11" style="stroke:#181818;stroke-width:1.0;"/><path d="M956.0156,753.875 Q956.1719,753.6563 956.3594,753.5469 Q956.5469,753.4375 956.7656,753.4375 Q957.1406,753.4375 957.375,753.7031 Q957.6094,753.9531 957.6094,754.5625 L957.6094,756.0156 Q957.6094,756.625 957.375,756.8906 Q957.1406,757.1563 956.7656,757.1563 Q956.4219,757.1563 956.2188,756.9531 Q956.0156,756.7656 955.9063,756.25 Q955.8594,755.8906 955.6719,755.7031 Q955.3438,755.3281 954.7344,755.1094 Q954.125,754.8906 953.5,754.8906 Q952.7344,754.8906 952.0938,755.2188 Q951.4688,755.5469 950.9688,756.2969 Q950.4844,757.0469 950.4844,758.0781 L950.4844,759.1719 Q950.4844,760.4063 951.375,761.2344 Q952.2656,762.0469 953.8594,762.0469 Q954.7969,762.0469 955.4531,761.7969 Q955.8438,761.6406 956.2656,761.2031 Q956.5313,760.9375 956.6719,760.8594 Q956.8281,760.7813 957.0313,760.7813 Q957.3594,760.7813 957.6094,761.0469 Q957.875,761.2969 957.875,761.6406 Q957.875,761.9844 957.5313,762.3906 Q957.0313,762.9688 956.2344,763.2969 Q955.1563,763.75 953.8594,763.75 Q952.3438,763.75 951.1406,763.125 Q950.1563,762.625 949.4688,761.5625 Q948.7813,760.4844 948.7813,759.2031 L948.7813,758.0469 Q948.7813,756.7188 949.3906,755.5781 Q950.0156,754.4219 951.1094,753.8125 Q952.2031,753.1875 953.4375,753.1875 Q954.1719,753.1875 954.8125,753.3594 Q955.4688,753.5156 956.0156,753.875 Z " fill="#000000"/><text fill="#000000" font-family="sans-serif" font-size="14" lengthAdjust="spacing" textLength="69" x="973.75" y="763.7285">FilledPlace</text><line style="stroke:#181818;stroke-width:0.5;" x1="836" x2="1148" y1="774" y2="774"/><line style="stroke:#181818;stroke-width:0.5;" x1="836" x2="1148" y1="782" y2="782"/><rect fill="#F24D5C" height="6" style="stroke:#C82930;stroke-width:1.0;" width="6" x="843" y="793.3047"/><text fill="#000000" font-family="sans-serif" font-size="14" lengthAdjust="spacing" textLength="288" x="855" y="800.5332">ArrayList&lt;Item&gt; items = new ArrayList&lt;Item&gt;()</text><ellipse cx="846" cy="813.9141" fill="#84BE84" rx="3" ry="3" style="stroke:#038048;stroke-width:1.0;"/><text fill="#000000" font-family="sans-serif" font-size="14" lengthAdjust="spacing" textLength="155" x="855" y="818.1426">FilledPlace(String name)</text><ellipse cx="846" cy="831.5234" fill="#84BE84" rx="3" ry="3" style="stroke:#038048;stroke-width:1.0;"/><text fill="#000000" font-family="sans-serif" font-size="14" lengthAdjust="spacing" textLength="146" x="855" y="835.752">void addItem(Item item)</text><ellipse cx="846" cy="849.1328" fill="#84BE84" rx="3" ry="3" style="stroke:#038048;stroke-width:1.0;"/><text fill="#000000" font-family="sans-serif" font-size="14" lengthAdjust="spacing" textLength="116" x="855" y="853.3613">Item getItem(int id)</text><ellipse cx="846" cy="866.7422" fill="#84BE84" rx="3" ry="3" style="stroke:#038048;stroke-width:1.0;"/><text fill="#000000" font-family="sans-serif" font-size="14" lengthAdjust="spacing" textLength="107" x="855" y="870.9707">String getName()</text></g><!--class RegularPlace--><g id="elem_RegularPlace"><rect codeLine="126" fill="#F1F1F1" height="83.2188" id="RegularPlace" rx="2.5" ry="2.5" style="stroke:#181818;stroke-width:0.5;" width="197" x="1184.5" y="768.5"/><ellipse cx="1236.25" cy="784.5" fill="#ADD1B2" rx="11" ry="11" style="stroke:#181818;stroke-width:1.0;"/><path d="M1239.0156,780.375 Q1239.1719,780.1563 1239.3594,780.0469 Q1239.5469,779.9375 1239.7656,779.9375 Q1240.1406,779.9375 1240.375,780.2031 Q1240.6094,780.4531 1240.6094,781.0625 L1240.6094,782.5156 Q1240.6094,783.125 1240.375,783.3906 Q1240.1406,783.6563 1239.7656,783.6563 Q1239.4219,783.6563 1239.2188,783.4531 Q1239.0156,783.2656 1238.9063,782.75 Q1238.8594,782.3906 1238.6719,782.2031 Q1238.3438,781.8281 1237.7344,781.6094 Q1237.125,781.3906 1236.5,781.3906 Q1235.7344,781.3906 1235.0938,781.7188 Q1234.4688,782.0469 1233.9688,782.7969 Q1233.4844,783.5469 1233.4844,784.5781 L1233.4844,785.6719 Q1233.4844,786.9063 1234.375,787.7344 Q1235.2656,788.5469 1236.8594,788.5469 Q1237.7969,788.5469 1238.4531,788.2969 Q1238.8438,788.1406 1239.2656,787.7031 Q1239.5313,787.4375 1239.6719,787.3594 Q1239.8281,787.2813 1240.0313,787.2813 Q1240.3594,787.2813 1240.6094,787.5469 Q1240.875,787.7969 1240.875,788.1406 Q1240.875,788.4844 1240.5313,788.8906 Q1240.0313,789.4688 1239.2344,789.7969 Q1238.1563,790.25 1236.8594,790.25 Q1235.3438,790.25 1234.1406,789.625 Q1233.1563,789.125 1232.4688,788.0625 Q1231.7813,786.9844 1231.7813,785.7031 L1231.7813,784.5469 Q1231.7813,783.2188 1232.3906,782.0781 Q1233.0156,780.9219 1234.1094,780.3125 Q1235.2031,779.6875 1236.4375,779.6875 Q1237.1719,779.6875 1237.8125,779.8594 Q1238.4688,780.0156 1239.0156,780.375 Z " fill="#000000"/><text fill="#000000" font-family="sans-serif" font-size="14" lengthAdjust="spacing" textLength="85" x="1256.75" y="790.2285">RegularPlace</text><line style="stroke:#181818;stroke-width:0.5;" x1="1185.5" x2="1380.5" y1="800.5" y2="800.5"/><line style="stroke:#181818;stroke-width:0.5;" x1="1185.5" x2="1380.5" y1="808.5" y2="808.5"/><ellipse cx="1195.5" cy="822.8047" fill="#84BE84" rx="3" ry="3" style="stroke:#038048;stroke-width:1.0;"/><text fill="#000000" font-family="sans-serif" font-size="14" lengthAdjust="spacing" textLength="171" x="1204.5" y="827.0332">RegularPlace(String name)</text><ellipse cx="1195.5" cy="840.4141" fill="#84BE84" rx="3" ry="3" style="stroke:#038048;stroke-width:1.0;"/><text fill="#000000" font-family="sans-serif" font-size="14" lengthAdjust="spacing" textLength="107" x="1204.5" y="844.6426">String getName()</text></g><!--class AbstractPlace--><g id="elem_AbstractPlace"><rect codeLine="106" fill="#F1F1F1" height="171.2656" id="AbstractPlace" rx="2.5" ry="2.5" style="stroke:#181818;stroke-width:0.5;" width="252" x="1130" y="387.5"/><ellipse cx="1208.25" cy="403.5" fill="#A9DCDF" rx="11" ry="11" style="stroke:#181818;stroke-width:1.0;"/><path d="M1210.4375,405.2656 L1206.2969,405.2656 L1205.875,406.2969 L1206.2969,406.2969 Q1206.9063,406.2969 1207.1719,406.5313 Q1207.4375,406.7656 1207.4375,407.1563 Q1207.4375,407.5313 1207.1719,407.7656 Q1206.9063,408 1206.2969,408 L1204,408 Q1203.3906,408 1203.1406,407.7656 Q1202.875,407.5313 1202.875,407.1406 Q1202.875,406.7656 1203.1563,406.5313 Q1203.4219,406.2813 1204.0469,406.2969 L1206.7188,399.6406 L1205.6094,399.6406 Q1205,399.6406 1204.7344,399.4063 Q1204.4688,399.1719 1204.4688,398.7813 Q1204.4688,398.4063 1204.7344,398.1719 Q1205,397.9375 1205.6094,397.9375 L1209.2813,397.9375 L1212.6719,406.2969 Q1213.2656,406.2969 1213.4531,406.4375 Q1213.8438,406.7031 1213.8438,407.1563 Q1213.8438,407.5313 1213.5781,407.7656 Q1213.3281,408 1212.7188,408 L1210.4219,408 Q1209.8125,408 1209.5469,407.7656 Q1209.2813,407.5313 1209.2813,407.1406 Q1209.2813,406.7656 1209.5469,406.5313 Q1209.8125,406.2969 1210.4219,406.2969 L1210.8438,406.2969 L1210.4375,405.2656 Z M1209.7188,403.5625 L1208.3594,400.1875 L1206.9844,403.5625 L1209.7188,403.5625 Z " fill="#000000"/><text fill="#000000" font-family="sans-serif" font-size="14" font-style="italic" lengthAdjust="spacing" textLength="87" x="1228.75" y="409.2285">AbstractPlace</text><line style="stroke:#181818;stroke-width:0.5;" x1="1131" x2="1381" y1="419.5" y2="419.5"/><rect fill="none" height="6" style="stroke:#C82930;stroke-width:1.0;" width="6" x="1138" y="430.8047"/><text fill="#000000" font-family="sans-serif" font-size="14" lengthAdjust="spacing" textLength="76" x="1150" y="438.0332">String name</text><line style="stroke:#181818;stroke-width:0.5;" x1="1131" x2="1381" y1="445.1094" y2="445.1094"/><polygon fill="#FFFF44" points="1141,454.4141,1145,458.4141,1141,462.4141,1137,458.4141" style="stroke:#B38D22;stroke-width:1.0;"/><text fill="#000000" font-family="sans-serif" font-size="14" lengthAdjust="spacing" textLength="173" x="1150" y="463.6426">AbstractPlace(String name)</text><polygon fill="#FFFF44" points="1141,472.0234,1145,476.0234,1141,480.0234,1137,476.0234" style="stroke:#B38D22;stroke-width:1.0;"/><text fill="#000000" font-family="sans-serif" font-size="14" lengthAdjust="spacing" textLength="142" x="1150" y="481.252">String getPlaceName()</text><text fill="#000000" font-family="sans-serif" font-size="14" lengthAdjust="spacing" textLength="170" x="1150" y="498.8613">abstract +String getName()</text><ellipse cx="1141" cy="512.2422" fill="#84BE84" rx="3" ry="3" style="stroke:#038048;stroke-width:1.0;"/><text fill="#000000" font-family="sans-serif" font-size="14" lengthAdjust="spacing" textLength="226" x="1150" y="516.4707">boolean equals(Object otherObject)</text><ellipse cx="1141" cy="529.8516" fill="#84BE84" rx="3" ry="3" style="stroke:#038048;stroke-width:1.0;"/><text fill="#000000" font-family="sans-serif" font-size="14" lengthAdjust="spacing" textLength="94" x="1150" y="534.0801">int hashCode()</text><ellipse cx="1141" cy="547.4609" fill="#84BE84" rx="3" ry="3" style="stroke:#038048;stroke-width:1.0;"/><text fill="#000000" font-family="sans-serif" font-size="14" lengthAdjust="spacing" textLength="100" x="1150" y="551.6895">String toString()</text></g><!--class IHasItems--><g id="elem_IHasItems"><rect codeLine="132" fill="#F1F1F1" height="83.2188" id="IHasItems" rx="2.5" ry="2.5" style="stroke:#181818;stroke-width:0.5;" width="158" x="937" y="431.5"/><ellipse cx="980.35" cy="447.5" fill="#B4A7E5" rx="11" ry="11" style="stroke:#181818;stroke-width:1.0;"/><path d="M981.3031,444.1406 L981.3031,450.7969 L983.0219,450.7969 Q983.6313,450.7969 983.8969,451.0313 Q984.1625,451.2656 984.1625,451.6563 Q984.1625,452.0313 983.8969,452.2656 Q983.6313,452.5 983.0219,452.5 L977.8813,452.5 Q977.2719,452.5 977.0063,452.2656 Q976.7406,452.0313 976.7406,451.6406 Q976.7406,451.2656 977.0063,451.0313 Q977.2719,450.7969 977.8813,450.7969 L979.6,450.7969 L979.6,444.1406 L977.8813,444.1406 Q977.2719,444.1406 977.0063,443.9063 Q976.7406,443.6719 976.7406,443.2813 Q976.7406,442.9063 977.0063,442.6719 Q977.2719,442.4375 977.8813,442.4375 L983.0219,442.4375 Q983.6313,442.4375 983.8969,442.6719 Q984.1625,442.9063 984.1625,443.2813 Q984.1625,443.6719 983.8969,443.9063 Q983.6313,444.1406 983.0219,444.1406 L981.3031,444.1406 Z " fill="#000000"/><text fill="#000000" font-family="sans-serif" font-size="14" font-style="italic" lengthAdjust="spacing" textLength="63" x="1000.65" y="453.2285">IHasItems</text><line style="stroke:#181818;stroke-width:0.5;" x1="938" x2="1094" y1="463.5" y2="463.5"/><line style="stroke:#181818;stroke-width:0.5;" x1="938" x2="1094" y1="471.5" y2="471.5"/><text fill="#000000" font-family="sans-serif" font-size="14" lengthAdjust="spacing" textLength="146" x="943" y="490.0332">void addItem(Item item)</text><text fill="#000000" font-family="sans-serif" font-size="14" lengthAdjust="spacing" textLength="116" x="943" y="507.6426">Item getItem(int id)</text></g><!--class RegularShortly--><g id="elem_RegularShortly"><rect codeLine="47" fill="#F1F1F1" height="153.6563" id="RegularShortly" rx="2.5" ry="2.5" style="stroke:#181818;stroke-width:0.5;" width="570" x="1698" y="733"/><ellipse cx="1931.75" cy="749" fill="#ADD1B2" rx="11" ry="11" style="stroke:#181818;stroke-width:1.0;"/><path d="M1934.5156,744.875 Q1934.6719,744.6563 1934.8594,744.5469 Q1935.0469,744.4375 1935.2656,744.4375 Q1935.6406,744.4375 1935.875,744.7031 Q1936.1094,744.9531 1936.1094,745.5625 L1936.1094,747.0156 Q1936.1094,747.625 1935.875,747.8906 Q1935.6406,748.1563 1935.2656,748.1563 Q1934.9219,748.1563 1934.7188,747.9531 Q1934.5156,747.7656 1934.4063,747.25 Q1934.3594,746.8906 1934.1719,746.7031 Q1933.8438,746.3281 1933.2344,746.1094 Q1932.625,745.8906 1932,745.8906 Q1931.2344,745.8906 1930.5938,746.2188 Q1929.9688,746.5469 1929.4688,747.2969 Q1928.9844,748.0469 1928.9844,749.0781 L1928.9844,750.1719 Q1928.9844,751.4063 1929.875,752.2344 Q1930.7656,753.0469 1932.3594,753.0469 Q1933.2969,753.0469 1933.9531,752.7969 Q1934.3438,752.6406 1934.7656,752.2031 Q1935.0313,751.9375 1935.1719,751.8594 Q1935.3281,751.7813 1935.5313,751.7813 Q1935.8594,751.7813 1936.1094,752.0469 Q1936.375,752.2969 1936.375,752.6406 Q1936.375,752.9844 1936.0313,753.3906 Q1935.5313,753.9688 1934.7344,754.2969 Q1933.6563,754.75 1932.3594,754.75 Q1930.8438,754.75 1929.6406,754.125 Q1928.6563,753.625 1927.9688,752.5625 Q1927.2813,751.4844 1927.2813,750.2031 L1927.2813,749.0469 Q1927.2813,747.7188 1927.8906,746.5781 Q1928.5156,745.4219 1929.6094,744.8125 Q1930.7031,744.1875 1931.9375,744.1875 Q1932.6719,744.1875 1933.3125,744.3594 Q1933.9688,744.5156 1934.5156,744.875 Z " fill="#000000"/><text fill="#000000" font-family="sans-serif" font-size="14" lengthAdjust="spacing" textLength="94" x="1952.25" y="754.7285">RegularShortly</text><line style="stroke:#181818;stroke-width:0.5;" x1="1699" x2="2267" y1="765" y2="765"/><line style="stroke:#181818;stroke-width:0.5;" x1="1699" x2="2267" y1="773" y2="773"/><ellipse cx="1709" cy="787.3047" fill="#84BE84" rx="3" ry="3" style="stroke:#038048;stroke-width:1.0;"/><text fill="#000000" font-family="sans-serif" font-size="14" lengthAdjust="spacing" textLength="544" x="1718" y="791.5332">RegularShortly(String name_1, String name_2, String name_3, AbstractPlace location)</text><ellipse cx="1709" cy="804.9141" fill="#84BE84" rx="3" ry="3" style="stroke:#038048;stroke-width:1.0;"/><text fill="#000000" font-family="sans-serif" font-size="14" lengthAdjust="spacing" textLength="328" x="1718" y="809.1426">RegularShortly(String name, AbstractPlace location)</text><ellipse cx="1709" cy="822.5234" fill="#84BE84" rx="3" ry="3" style="stroke:#038048;stroke-width:1.0;"/><text fill="#000000" font-family="sans-serif" font-size="14" lengthAdjust="spacing" textLength="444" x="1718" y="826.752">RegularShortly(String name_1, String name_2, AbstractPlace location)</text><ellipse cx="1709" cy="840.1328" fill="#84BE84" rx="3" ry="3" style="stroke:#038048;stroke-width:1.0;"/><text fill="#000000" font-family="sans-serif" font-size="14" lengthAdjust="spacing" textLength="466" x="1718" y="844.3613">boolean startDoThing(Task task, boolean include_location, String reason)</text><ellipse cx="1709" cy="857.7422" fill="#84BE84" rx="3" ry="3" style="stroke:#038048;stroke-width:1.0;"/><text fill="#000000" font-family="sans-serif" font-size="14" lengthAdjust="spacing" textLength="471" x="1718" y="861.9707">boolean finishDoThing(Task task, boolean include_location, String reason)</text><ellipse cx="1709" cy="875.3516" fill="#84BE84" rx="3" ry="3" style="stroke:#038048;stroke-width:1.0;"/><text fill="#000000" font-family="sans-serif" font-size="14" lengthAdjust="spacing" textLength="460" x="1718" y="879.5801">boolean justDoThing(Task task, boolean include_location, String reason)</text></g><!--class MasterShorty--><g id="elem_MasterShorty"><rect codeLine="37" fill="#F1F1F1" height="153.6563" id="MasterShorty" rx="2.5" ry="2.5" style="stroke:#181818;stroke-width:0.5;" width="629" x="2303.5" y="733"/><ellipse cx="2571.75" cy="749" fill="#ADD1B2" rx="11" ry="11" style="stroke:#181818;stroke-width:1.0;"/><path d="M2574.5156,744.875 Q2574.6719,744.6563 2574.8594,744.5469 Q2575.0469,744.4375 2575.2656,744.4375 Q2575.6406,744.4375 2575.875,744.7031 Q2576.1094,744.9531 2576.1094,745.5625 L2576.1094,747.0156 Q2576.1094,747.625 2575.875,747.8906 Q2575.6406,748.1563 2575.2656,748.1563 Q2574.9219,748.1563 2574.7188,747.9531 Q2574.5156,747.7656 2574.4063,747.25 Q2574.3594,746.8906 2574.1719,746.7031 Q2573.8438,746.3281 2573.2344,746.1094 Q2572.625,745.8906 2572,745.8906 Q2571.2344,745.8906 2570.5938,746.2188 Q2569.9688,746.5469 2569.4688,747.2969 Q2568.9844,748.0469 2568.9844,749.0781 L2568.9844,750.1719 Q2568.9844,751.4063 2569.875,752.2344 Q2570.7656,753.0469 2572.3594,753.0469 Q2573.2969,753.0469 2573.9531,752.7969 Q2574.3438,752.6406 2574.7656,752.2031 Q2575.0313,751.9375 2575.1719,751.8594 Q2575.3281,751.7813 2575.5313,751.7813 Q2575.8594,751.7813 2576.1094,752.0469 Q2576.375,752.2969 2576.375,752.6406 Q2576.375,752.9844 2576.0313,753.3906 Q2575.5313,753.9688 2574.7344,754.2969 Q2573.6563,754.75 2572.3594,754.75 Q2570.8438,754.75 2569.6406,754.125 Q2568.6563,753.625 2567.9688,752.5625 Q2567.2813,751.4844 2567.2813,750.2031 L2567.2813,749.0469 Q2567.2813,747.7188 2567.8906,746.5781 Q2568.5156,745.4219 2569.6094,744.8125 Q2570.7031,744.1875 2571.9375,744.1875 Q2572.6719,744.1875 2573.3125,744.3594 Q2573.9688,744.5156 2574.5156,744.875 Z " fill="#000000"/><text fill="#000000" font-family="sans-serif" font-size="14" lengthAdjust="spacing" textLength="84" x="2592.25" y="754.7285">MasterShorty</text><line style="stroke:#181818;stroke-width:0.5;" x1="2304.5" x2="2931.5" y1="765" y2="765"/><rect fill="none" height="6" style="stroke:#C82930;stroke-width:1.0;" width="6" x="2311.5" y="776.3047"/><text fill="#000000" font-family="sans-serif" font-size="14" lengthAdjust="spacing" textLength="61" x="2323.5" y="783.5332">Task task</text><line style="stroke:#181818;stroke-width:0.5;" x1="2304.5" x2="2931.5" y1="790.6094" y2="790.6094"/><ellipse cx="2314.5" cy="804.9141" fill="#84BE84" rx="3" ry="3" style="stroke:#038048;stroke-width:1.0;"/><text fill="#000000" font-family="sans-serif" font-size="14" lengthAdjust="spacing" textLength="603" x="2323.5" y="809.1426">MasterShorty(String name_1, String name_2, String name_3, AbstractPlace location, Task task)</text><ellipse cx="2314.5" cy="822.5234" fill="#84BE84" rx="3" ry="3" style="stroke:#038048;stroke-width:1.0;"/><text fill="#000000" font-family="sans-serif" font-size="14" lengthAdjust="spacing" textLength="387" x="2323.5" y="826.752">MasterShorty(String name, AbstractPlace location, Task task)</text><ellipse cx="2314.5" cy="840.1328" fill="#84BE84" rx="3" ry="3" style="stroke:#038048;stroke-width:1.0;"/><text fill="#000000" font-family="sans-serif" font-size="14" lengthAdjust="spacing" textLength="503" x="2323.5" y="844.3613">MasterShorty(String name_1, String name_2, AbstractPlace location, Task task)</text><ellipse cx="2314.5" cy="857.7422" fill="#84BE84" rx="3" ry="3" style="stroke:#038048;stroke-width:1.0;"/><text fill="#000000" font-family="sans-serif" font-size="14" lengthAdjust="spacing" textLength="151" x="2323.5" y="861.9707">void setTask(Task task)</text><ellipse cx="2314.5" cy="875.3516" fill="#84BE84" rx="3" ry="3" style="stroke:#038048;stroke-width:1.0;"/><text fill="#000000" font-family="sans-serif" font-size="14" lengthAdjust="spacing" textLength="96" x="2323.5" y="879.5801">Task getTask()</text></g><!--class SlaveShorty--><g id="elem_SlaveShorty"><rect codeLine="57" fill="#F1F1F1" height="224.0938" id="SlaveShorty" rx="2.5" ry="2.5" style="stroke:#181818;stroke-width:0.5;" width="719" x="2967.5" y="698"/><ellipse cx="3284.75" cy="714" fill="#ADD1B2" rx="11" ry="11" style="stroke:#181818;stroke-width:1.0;"/><path d="M3287.5156,709.875 Q3287.6719,709.6563 3287.8594,709.5469 Q3288.0469,709.4375 3288.2656,709.4375 Q3288.6406,709.4375 3288.875,709.7031 Q3289.1094,709.9531 3289.1094,710.5625 L3289.1094,712.0156 Q3289.1094,712.625 3288.875,712.8906 Q3288.6406,713.1563 3288.2656,713.1563 Q3287.9219,713.1563 3287.7188,712.9531 Q3287.5156,712.7656 3287.4063,712.25 Q3287.3594,711.8906 3287.1719,711.7031 Q3286.8438,711.3281 3286.2344,711.1094 Q3285.625,710.8906 3285,710.8906 Q3284.2344,710.8906 3283.5938,711.2188 Q3282.9688,711.5469 3282.4688,712.2969 Q3281.9844,713.0469 3281.9844,714.0781 L3281.9844,715.1719 Q3281.9844,716.4063 3282.875,717.2344 Q3283.7656,718.0469 3285.3594,718.0469 Q3286.2969,718.0469 3286.9531,717.7969 Q3287.3438,717.6406 3287.7656,717.2031 Q3288.0313,716.9375 3288.1719,716.8594 Q3288.3281,716.7813 3288.5313,716.7813 Q3288.8594,716.7813 3289.1094,717.0469 Q3289.375,717.2969 3289.375,717.6406 Q3289.375,717.9844 3289.0313,718.3906 Q3288.5313,718.9688 3287.7344,719.2969 Q3286.6563,719.75 3285.3594,719.75 Q3283.8438,719.75 3282.6406,719.125 Q3281.6563,718.625 3280.9688,717.5625 Q3280.2813,716.4844 3280.2813,715.2031 L3280.2813,714.0469 Q3280.2813,712.7188 3280.8906,711.5781 Q3281.5156,710.4219 3282.6094,709.8125 Q3283.7031,709.1875 3284.9375,709.1875 Q3285.6719,709.1875 3286.3125,709.3594 Q3286.9688,709.5156 3287.5156,709.875 Z " fill="#000000"/><text fill="#000000" font-family="sans-serif" font-size="14" lengthAdjust="spacing" textLength="76" x="3305.25" y="719.7285">SlaveShorty</text><line style="stroke:#181818;stroke-width:0.5;" x1="2968.5" x2="3685.5" y1="730" y2="730"/><rect fill="none" height="6" style="stroke:#C82930;stroke-width:1.0;" width="6" x="2975.5" y="741.3047"/><text fill="#000000" font-family="sans-serif" font-size="14" lengthAdjust="spacing" textLength="131" x="2987.5" y="748.5332">MasterShorty master</text><rect fill="none" height="6" style="stroke:#C82930;stroke-width:1.0;" width="6" x="2975.5" y="758.9141"/><text fill="#000000" font-family="sans-serif" font-size="14" lengthAdjust="spacing" textLength="158" x="2987.5" y="766.1426">boolean unlocked = false</text><line style="stroke:#181818;stroke-width:0.5;" x1="2968.5" x2="3685.5" y1="773.2188" y2="773.2188"/><rect fill="#F24D5C" height="6" style="stroke:#C82930;stroke-width:1.0;" width="6" x="2975.5" y="784.5234"/><text fill="#000000" font-family="sans-serif" font-size="14" lengthAdjust="spacing" textLength="186" x="2987.5" y="791.752">Random rng = new Random()</text><ellipse cx="2978.5" cy="805.1328" fill="#84BE84" rx="3" ry="3" style="stroke:#038048;stroke-width:1.0;"/><text fill="#000000" font-family="sans-serif" font-size="14" lengthAdjust="spacing" textLength="665" x="2987.5" y="809.3613">SlaveShorty(String name_1, String name_2, String name_3, AbstractPlace location, MasterShorty master)</text><ellipse cx="2978.5" cy="822.7422" fill="#84BE84" rx="3" ry="3" style="stroke:#038048;stroke-width:1.0;"/><text fill="#000000" font-family="sans-serif" font-size="14" lengthAdjust="spacing" textLength="449" x="2987.5" y="826.9707">SlaveShorty(String name, AbstractPlace location, MasterShorty master)</text><ellipse cx="2978.5" cy="840.3516" fill="#84BE84" rx="3" ry="3" style="stroke:#038048;stroke-width:1.0;"/><text fill="#000000" font-family="sans-serif" font-size="14" lengthAdjust="spacing" textLength="565" x="2987.5" y="844.5801">SlaveShorty(String name_1, String name_2, AbstractPlace location, MasterShorty master)</text><ellipse cx="2978.5" cy="857.9609" fill="#84BE84" rx="3" ry="3" style="stroke:#038048;stroke-width:1.0;"/><text fill="#000000" font-family="sans-serif" font-size="14" lengthAdjust="spacing" textLength="147" x="2987.5" y="862.1895">void unlockNextAction()</text><ellipse cx="2978.5" cy="875.5703" fill="#84BE84" rx="3" ry="3" style="stroke:#038048;stroke-width:1.0;"/><text fill="#000000" font-family="sans-serif" font-size="14" lengthAdjust="spacing" textLength="688" x="2987.5" y="879.7988">boolean startDoThing(Task task, boolean include_location, String reason) throws NotPermittedTaskException</text><ellipse cx="2978.5" cy="893.1797" fill="#84BE84" rx="3" ry="3" style="stroke:#038048;stroke-width:1.0;"/><text fill="#000000" font-family="sans-serif" font-size="14" lengthAdjust="spacing" textLength="693" x="2987.5" y="897.4082">boolean finishDoThing(Task task, boolean include_location, String reason) throws NotPermittedTaskException</text><ellipse cx="2978.5" cy="910.7891" fill="#84BE84" rx="3" ry="3" style="stroke:#038048;stroke-width:1.0;"/><text fill="#000000" font-family="sans-serif" font-size="14" lengthAdjust="spacing" textLength="682" x="2987.5" y="915.0176">boolean justDoThing(Task task, boolean include_location, String reason) throws NotPermittedTaskException</text></g><!--class AbstractShorty--><g id="elem_AbstractShorty"><rect codeLine="17" fill="#F1F1F1" height="329.75" id="AbstractShorty" rx="2.5" ry="2.5" style="stroke:#181818;stroke-width:0.5;" width="569" x="1698.5" y="308"/><ellipse cx="1932.25" cy="324" fill="#A9DCDF" rx="11" ry="11" style="stroke:#181818;stroke-width:1.0;"/><path d="M1934.4375,325.7656 L1930.2969,325.7656 L1929.875,326.7969 L1930.2969,326.7969 Q1930.9063,326.7969 1931.1719,327.0313 Q1931.4375,327.2656 1931.4375,327.6563 Q1931.4375,328.0313 1931.1719,328.2656 Q1930.9063,328.5 1930.2969,328.5 L1928,328.5 Q1927.3906,328.5 1927.1406,328.2656 Q1926.875,328.0313 1926.875,327.6406 Q1926.875,327.2656 1927.1563,327.0313 Q1927.4219,326.7813 1928.0469,326.7969 L1930.7188,320.1406 L1929.6094,320.1406 Q1929,320.1406 1928.7344,319.9063 Q1928.4688,319.6719 1928.4688,319.2813 Q1928.4688,318.9063 1928.7344,318.6719 Q1929,318.4375 1929.6094,318.4375 L1933.2813,318.4375 L1936.6719,326.7969 Q1937.2656,326.7969 1937.4531,326.9375 Q1937.8438,327.2031 1937.8438,327.6563 Q1937.8438,328.0313 1937.5781,328.2656 Q1937.3281,328.5 1936.7188,328.5 L1934.4219,328.5 Q1933.8125,328.5 1933.5469,328.2656 Q1933.2813,328.0313 1933.2813,327.6406 Q1933.2813,327.2656 1933.5469,327.0313 Q1933.8125,326.7969 1934.4219,326.7969 L1934.8438,326.7969 L1934.4375,325.7656 Z M1933.7188,324.0625 L1932.3594,320.6875 L1930.9844,324.0625 L1933.7188,324.0625 Z " fill="#000000"/><text fill="#000000" font-family="sans-serif" font-size="14" font-style="italic" lengthAdjust="spacing" textLength="93" x="1952.75" y="329.7285">AbstractShorty</text><line style="stroke:#181818;stroke-width:0.5;" x1="1699.5" x2="2266.5" y1="340" y2="340"/><rect fill="none" height="6" style="stroke:#C82930;stroke-width:1.0;" width="6" x="1706.5" y="351.3047"/><text fill="#000000" font-family="sans-serif" font-size="14" lengthAdjust="spacing" textLength="128" x="1718.5" y="358.5332">NamesRecord name</text><rect fill="none" height="6" style="stroke:#C82930;stroke-width:1.0;" width="6" x="1706.5" y="368.9141"/><text fill="#000000" font-family="sans-serif" font-size="14" lengthAdjust="spacing" textLength="140" x="1718.5" y="376.1426">AbstractPlace location</text><rect fill="none" height="6" style="stroke:#C82930;stroke-width:1.0;" width="6" x="1706.5" y="386.5234"/><text fill="#000000" font-family="sans-serif" font-size="14" lengthAdjust="spacing" textLength="131" x="1718.5" y="393.752">int current_name = 1</text><line style="stroke:#181818;stroke-width:0.5;" x1="1699.5" x2="2266.5" y1="400.8281" y2="400.8281"/><ellipse cx="1709.5" cy="415.1328" fill="#84BE84" rx="3" ry="3" style="stroke:#038048;stroke-width:1.0;"/><text fill="#000000" font-family="sans-serif" font-size="14" lengthAdjust="spacing" textLength="543" x="1718.5" y="419.3613">AbstractShorty(String name_1, String name_2, String name_3, AbstractPlace location)</text><ellipse cx="1709.5" cy="432.7422" fill="#84BE84" rx="3" ry="3" style="stroke:#038048;stroke-width:1.0;"/><text fill="#000000" font-family="sans-serif" font-size="14" lengthAdjust="spacing" textLength="327" x="1718.5" y="436.9707">AbstractShorty(String name, AbstractPlace location)</text><ellipse cx="1709.5" cy="450.3516" fill="#84BE84" rx="3" ry="3" style="stroke:#038048;stroke-width:1.0;"/><text fill="#000000" font-family="sans-serif" font-size="14" lengthAdjust="spacing" textLength="443" x="1718.5" y="454.5801">AbstractShorty(String name_1, String name_2, AbstractPlace location)</text><ellipse cx="1709.5" cy="467.9609" fill="#84BE84" rx="3" ry="3" style="stroke:#038048;stroke-width:1.0;"/><text fill="#000000" font-family="sans-serif" font-size="14" lengthAdjust="spacing" textLength="141" x="1718.5" y="472.1895">void selectFirstName()</text><ellipse cx="1709.5" cy="485.5703" fill="#84BE84" rx="3" ry="3" style="stroke:#038048;stroke-width:1.0;"/><text fill="#000000" font-family="sans-serif" font-size="14" lengthAdjust="spacing" textLength="161" x="1718.5" y="489.7988">void selectSecondName()</text><ellipse cx="1709.5" cy="503.1797" fill="#84BE84" rx="3" ry="3" style="stroke:#038048;stroke-width:1.0;"/><text fill="#000000" font-family="sans-serif" font-size="14" lengthAdjust="spacing" textLength="146" x="1718.5" y="507.4082">void selectThirdName()</text><ellipse cx="1709.5" cy="520.7891" fill="#84BE84" rx="3" ry="3" style="stroke:#038048;stroke-width:1.0;"/><text fill="#000000" font-family="sans-serif" font-size="14" lengthAdjust="spacing" textLength="175" x="1718.5" y="525.0176">AbstractPlace getLocation()</text><ellipse cx="1709.5" cy="538.3984" fill="#84BE84" rx="3" ry="3" style="stroke:#038048;stroke-width:1.0;"/><text fill="#000000" font-family="sans-serif" font-size="14" lengthAdjust="spacing" textLength="253" x="1718.5" y="542.627">void setLocation(AbstractPlace location)</text><ellipse cx="1709.5" cy="556.0078" fill="#84BE84" rx="3" ry="3" style="stroke:#038048;stroke-width:1.0;"/><text fill="#000000" font-family="sans-serif" font-size="14" lengthAdjust="spacing" textLength="107" x="1718.5" y="560.2363">String getName()</text><ellipse cx="1709.5" cy="573.6172" fill="#84BE84" rx="3" ry="3" style="stroke:#038048;stroke-width:1.0;"/><text fill="#000000" font-family="sans-serif" font-size="14" lengthAdjust="spacing" textLength="104" x="1718.5" y="577.8457">void printName()</text><ellipse cx="1709.5" cy="591.2266" fill="#84BE84" rx="3" ry="3" style="stroke:#038048;stroke-width:1.0;"/><text fill="#000000" font-family="sans-serif" font-size="14" lengthAdjust="spacing" textLength="226" x="1718.5" y="595.4551">boolean equals(Object otherObject)</text><ellipse cx="1709.5" cy="608.8359" fill="#84BE84" rx="3" ry="3" style="stroke:#038048;stroke-width:1.0;"/><text fill="#000000" font-family="sans-serif" font-size="14" lengthAdjust="spacing" textLength="94" x="1718.5" y="613.0645">int hashCode()</text><ellipse cx="1709.5" cy="626.4453" fill="#84BE84" rx="3" ry="3" style="stroke:#038048;stroke-width:1.0;"/><text fill="#000000" font-family="sans-serif" font-size="14" lengthAdjust="spacing" textLength="100" x="1718.5" y="630.6738">String toString()</text></g><!--class ICanSetTask--><g id="elem_ICanSetTask"><rect codeLine="86" fill="#F1F1F1" height="83.2188" id="ICanSetTask" rx="2.5" ry="2.5" style="stroke:#181818;stroke-width:0.5;" width="163" x="2820.5" y="431.5"/><ellipse cx="2857.1" cy="447.5" fill="#B4A7E5" rx="11" ry="11" style="stroke:#181818;stroke-width:1.0;"/><path d="M2858.0531,444.1406 L2858.0531,450.7969 L2859.7719,450.7969 Q2860.3813,450.7969 2860.6469,451.0313 Q2860.9125,451.2656 2860.9125,451.6563 Q2860.9125,452.0313 2860.6469,452.2656 Q2860.3813,452.5 2859.7719,452.5 L2854.6313,452.5 Q2854.0219,452.5 2853.7563,452.2656 Q2853.4906,452.0313 2853.4906,451.6406 Q2853.4906,451.2656 2853.7563,451.0313 Q2854.0219,450.7969 2854.6313,450.7969 L2856.35,450.7969 L2856.35,444.1406 L2854.6313,444.1406 Q2854.0219,444.1406 2853.7563,443.9063 Q2853.4906,443.6719 2853.4906,443.2813 Q2853.4906,442.9063 2853.7563,442.6719 Q2854.0219,442.4375 2854.6313,442.4375 L2859.7719,442.4375 Q2860.3813,442.4375 2860.6469,442.6719 Q2860.9125,442.9063 2860.9125,443.2813 Q2860.9125,443.6719 2860.6469,443.9063 Q2860.3813,444.1406 2859.7719,444.1406 L2858.0531,444.1406 Z " fill="#000000"/><text fill="#000000" font-family="sans-serif" font-size="14" font-style="italic" lengthAdjust="spacing" textLength="83" x="2875.9" y="453.2285">ICanSetTask</text><line style="stroke:#181818;stroke-width:0.5;" x1="2821.5" x2="2982.5" y1="463.5" y2="463.5"/><line style="stroke:#181818;stroke-width:0.5;" x1="2821.5" x2="2982.5" y1="471.5" y2="471.5"/><text fill="#000000" font-family="sans-serif" font-size="14" lengthAdjust="spacing" textLength="96" x="2826.5" y="490.0332">Task getTask()</text><text fill="#000000" font-family="sans-serif" font-size="14" lengthAdjust="spacing" textLength="151" x="2826.5" y="507.6426">void setTask(Task task)</text></g><!--class ICanDoSomething--><g id="elem_ICanDoSomething"><rect codeLine="73" fill="#F1F1F1" height="188.875" id="ICanDoSomething" rx="2.5" ry="2.5" style="stroke:#181818;stroke-width:0.5;" width="483" x="2302.5" y="378.5"/><ellipse cx="2482.25" cy="394.5" fill="#B4A7E5" rx="11" ry="11" style="stroke:#181818;stroke-width:1.0;"/><path d="M2483.2031,391.1406 L2483.2031,397.7969 L2484.9219,397.7969 Q2485.5313,397.7969 2485.7969,398.0313 Q2486.0625,398.2656 2486.0625,398.6563 Q2486.0625,399.0313 2485.7969,399.2656 Q2485.5313,399.5 2484.9219,399.5 L2479.7813,399.5 Q2479.1719,399.5 2478.9063,399.2656 Q2478.6406,399.0313 2478.6406,398.6406 Q2478.6406,398.2656 2478.9063,398.0313 Q2479.1719,397.7969 2479.7813,397.7969 L2481.5,397.7969 L2481.5,391.1406 L2479.7813,391.1406 Q2479.1719,391.1406 2478.9063,390.9063 Q2478.6406,390.6719 2478.6406,390.2813 Q2478.6406,389.9063 2478.9063,389.6719 Q2479.1719,389.4375 2479.7813,389.4375 L2484.9219,389.4375 Q2485.5313,389.4375 2485.7969,389.6719 Q2486.0625,389.9063 2486.0625,390.2813 Q2486.0625,390.6719 2485.7969,390.9063 Q2485.5313,391.1406 2484.9219,391.1406 L2483.2031,391.1406 Z " fill="#000000"/><text fill="#000000" font-family="sans-serif" font-size="14" font-style="italic" lengthAdjust="spacing" textLength="115" x="2502.75" y="400.2285">ICanDoSomething</text><line style="stroke:#181818;stroke-width:0.5;" x1="2303.5" x2="2784.5" y1="410.5" y2="410.5"/><line style="stroke:#181818;stroke-width:0.5;" x1="2303.5" x2="2784.5" y1="418.5" y2="418.5"/><text fill="#000000" font-family="sans-serif" font-size="14" lengthAdjust="spacing" textLength="466" x="2308.5" y="437.0332">boolean startDoThing(Task task, boolean include_location, String reason)</text><text fill="#000000" font-family="sans-serif" font-size="14" lengthAdjust="spacing" textLength="471" x="2308.5" y="454.6426">boolean finishDoThing(Task task, boolean include_location, String reason)</text><text fill="#000000" font-family="sans-serif" font-size="14" lengthAdjust="spacing" textLength="460" x="2308.5" y="472.252">boolean justDoThing(Task task, boolean include_location, String reason)</text><text fill="#000000" font-family="sans-serif" font-size="14" lengthAdjust="spacing" textLength="420" x="2308.5" y="489.8613">default boolean startDoThing(Task task, boolean include_location)</text><text fill="#000000" font-family="sans-serif" font-size="14" lengthAdjust="spacing" textLength="4" x="2308.5" y="507.4707">&#160;</text><text fill="#000000" font-family="sans-serif" font-size="14" lengthAdjust="spacing" textLength="425" x="2308.5" y="525.0801">default boolean finishDoThing(Task task, boolean include_location)</text><text fill="#000000" font-family="sans-serif" font-size="14" lengthAdjust="spacing" textLength="4" x="2308.5" y="542.6895">&#160;</text><text fill="#000000" font-family="sans-serif" font-size="14" lengthAdjust="spacing" textLength="414" x="2308.5" y="560.2988">default boolean justDoThing(Task task, boolean include_location)</text></g><!--class ISlave--><g id="elem_ISlave"><rect codeLine="92" fill="#F1F1F1" height="206.4844" id="ISlave" rx="2.5" ry="2.5" style="stroke:#181818;stroke-width:0.5;" width="705" x="3018.5" y="370"/><ellipse cx="3347.75" cy="386" fill="#B4A7E5" rx="11" ry="11" style="stroke:#181818;stroke-width:1.0;"/><path d="M3348.7031,382.6406 L3348.7031,389.2969 L3350.4219,389.2969 Q3351.0313,389.2969 3351.2969,389.5313 Q3351.5625,389.7656 3351.5625,390.1563 Q3351.5625,390.5313 3351.2969,390.7656 Q3351.0313,391 3350.4219,391 L3345.2813,391 Q3344.6719,391 3344.4063,390.7656 Q3344.1406,390.5313 3344.1406,390.1406 Q3344.1406,389.7656 3344.4063,389.5313 Q3344.6719,389.2969 3345.2813,389.2969 L3347,389.2969 L3347,382.6406 L3345.2813,382.6406 Q3344.6719,382.6406 3344.4063,382.4063 Q3344.1406,382.1719 3344.1406,381.7813 Q3344.1406,381.4063 3344.4063,381.1719 Q3344.6719,380.9375 3345.2813,380.9375 L3350.4219,380.9375 Q3351.0313,380.9375 3351.2969,381.1719 Q3351.5625,381.4063 3351.5625,381.7813 Q3351.5625,382.1719 3351.2969,382.4063 Q3351.0313,382.6406 3350.4219,382.6406 L3348.7031,382.6406 Z " fill="#000000"/><text fill="#000000" font-family="sans-serif" font-size="14" font-style="italic" lengthAdjust="spacing" textLength="38" x="3368.25" y="391.7285">ISlave</text><line style="stroke:#181818;stroke-width:0.5;" x1="3019.5" x2="3722.5" y1="402" y2="402"/><line style="stroke:#181818;stroke-width:0.5;" x1="3019.5" x2="3722.5" y1="410" y2="410"/><text fill="#000000" font-family="sans-serif" font-size="14" lengthAdjust="spacing" textLength="147" x="3024.5" y="428.5332">void unlockNextAction()</text><text fill="#000000" font-family="sans-serif" font-size="14" lengthAdjust="spacing" textLength="688" x="3024.5" y="446.1426">boolean startDoThing(Task task, boolean include_location, String reason) throws NotPermittedTaskException</text><text fill="#000000" font-family="sans-serif" font-size="14" lengthAdjust="spacing" textLength="693" x="3024.5" y="463.752">boolean finishDoThing(Task task, boolean include_location, String reason) throws NotPermittedTaskException</text><text fill="#000000" font-family="sans-serif" font-size="14" lengthAdjust="spacing" textLength="682" x="3024.5" y="481.3613">boolean justDoThing(Task task, boolean include_location, String reason) throws NotPermittedTaskException</text><text fill="#000000" font-family="sans-serif" font-size="14" lengthAdjust="spacing" textLength="642" x="3024.5" y="498.9707">default boolean startDoThing(Task task, boolean include_location) throws NotPermittedTaskException</text><text fill="#000000" font-family="sans-serif" font-size="14" lengthAdjust="spacing" textLength="4" x="3024.5" y="516.5801">&#160;</text><text fill="#000000" font-family="sans-serif" font-size="14" lengthAdjust="spacing" textLength="647" x="3024.5" y="534.1895">default boolean finishDoThing(Task task, boolean include_location) throws NotPermittedTaskException</text><text fill="#000000" font-family="sans-serif" font-size="14" lengthAdjust="spacing" textLength="4" x="3024.5" y="551.7988">&#160;</text><text fill="#000000" font-family="sans-serif" font-size="14" lengthAdjust="spacing" textLength="636" x="3024.5" y="569.4082">default boolean justDoThing(Task task, boolean include_location) throws NotPermittedTaskException</text></g><!--class NotPermittedTaskException--><g id="elem_NotPermittedTaskException"><rect codeLine="138" fill="#F1F1F1" height="83.2188" id="NotPermittedTaskException" rx="2.5" ry="2.5" style="stroke:#181818;stroke-width:0.5;" width="307" x="3173.5" y="1090"/><ellipse cx="3236.25" cy="1106" fill="#ADD1B2" rx="11" ry="11" style="stroke:#181818;stroke-width:1.0;"/><path d="M3239.0156,1101.875 Q3239.1719,1101.6563 3239.3594,1101.5469 Q3239.5469,1101.4375 3239.7656,1101.4375 Q3240.1406,1101.4375 3240.375,1101.7031 Q3240.6094,1101.9531 3240.6094,1102.5625 L3240.6094,1104.0156 Q3240.6094,1104.625 3240.375,1104.8906 Q3240.1406,1105.1563 3239.7656,1105.1563 Q3239.4219,1105.1563 3239.2188,1104.9531 Q3239.0156,1104.7656 3238.9063,1104.25 Q3238.8594,1103.8906 3238.6719,1103.7031 Q3238.3438,1103.3281 3237.7344,1103.1094 Q3237.125,1102.8906 3236.5,1102.8906 Q3235.7344,1102.8906 3235.0938,1103.2188 Q3234.4688,1103.5469 3233.9688,1104.2969 Q3233.4844,1105.0469 3233.4844,1106.0781 L3233.4844,1107.1719 Q3233.4844,1108.4063 3234.375,1109.2344 Q3235.2656,1110.0469 3236.8594,1110.0469 Q3237.7969,1110.0469 3238.4531,1109.7969 Q3238.8438,1109.6406 3239.2656,1109.2031 Q3239.5313,1108.9375 3239.6719,1108.8594 Q3239.8281,1108.7813 3240.0313,1108.7813 Q3240.3594,1108.7813 3240.6094,1109.0469 Q3240.875,1109.2969 3240.875,1109.6406 Q3240.875,1109.9844 3240.5313,1110.3906 Q3240.0313,1110.9688 3239.2344,1111.2969 Q3238.1563,1111.75 3236.8594,1111.75 Q3235.3438,1111.75 3234.1406,1111.125 Q3233.1563,1110.625 3232.4688,1109.5625 Q3231.7813,1108.4844 3231.7813,1107.2031 L3231.7813,1106.0469 Q3231.7813,1104.7188 3232.3906,1103.5781 Q3233.0156,1102.4219 3234.1094,1101.8125 Q3235.2031,1101.1875 3236.4375,1101.1875 Q3237.1719,1101.1875 3237.8125,1101.3594 Q3238.4688,1101.5156 3239.0156,1101.875 Z " fill="#000000"/><text fill="#000000" font-family="sans-serif" font-size="14" lengthAdjust="spacing" textLength="173" x="3256.75" y="1111.7285">NotPermittedTaskException</text><line style="stroke:#181818;stroke-width:0.5;" x1="3174.5" x2="3479.5" y1="1122" y2="1122"/><line style="stroke:#181818;stroke-width:0.5;" x1="3174.5" x2="3479.5" y1="1130" y2="1130"/><ellipse cx="3184.5" cy="1144.3047" fill="#84BE84" rx="3" ry="3" style="stroke:#038048;stroke-width:1.0;"/><text fill="#000000" font-family="sans-serif" font-size="14" lengthAdjust="spacing" textLength="281" x="3193.5" y="1148.5332">NotPermittedTaskException(String message)</text><ellipse cx="3184.5" cy="1161.9141" fill="#84BE84" rx="3" ry="3" style="stroke:#038048;stroke-width:1.0;"/><text fill="#000000" font-family="sans-serif" font-size="14" lengthAdjust="spacing" textLength="128" x="3193.5" y="1166.1426">String getMessage()</text></g><!--class Item--><g id="elem_Item"><rect codeLine="144" fill="#F1F1F1" height="206.4844" id="Item" rx="2.5" ry="2.5" style="stroke:#181818;stroke-width:0.5;" width="406" x="59" y="42"/><ellipse cx="244.75" cy="58" fill="#EB937F" rx="11" ry="11" style="stroke:#181818;stroke-width:1.0;"/><path d="M243.6094,58.7969 L243.6094,61.2969 L247.9375,61.2969 L247.9375,60.375 Q247.9375,59.7656 248.1719,59.5 Q248.4219,59.2344 248.7969,59.2344 Q249.1719,59.2344 249.4063,59.5 Q249.6406,59.7656 249.6406,60.375 L249.6406,63 L241.6406,63 Q241.0156,63 240.75,62.7656 Q240.5,62.5313 240.5,62.1406 Q240.5,61.7656 240.7656,61.5313 Q241.0313,61.2969 241.6406,61.2969 L241.9063,61.2969 L241.9063,54.6406 L241.6406,54.6406 Q241.0156,54.6406 240.75,54.4063 Q240.5,54.1719 240.5,53.7813 Q240.5,53.4063 240.75,53.1719 Q241.0156,52.9375 241.6406,52.9375 L249.2656,52.9375 L249.2656,55.5313 Q249.2656,56.1406 249.0313,56.4063 Q248.8125,56.6563 248.4219,56.6563 Q248.0469,56.6563 247.8125,56.4063 Q247.5781,56.1406 247.5781,55.5313 L247.5781,54.6406 L243.6094,54.6406 L243.6094,57.0938 L245.0938,57.0938 Q245.0938,56.4375 245.2188,56.25 Q245.4844,55.8438 245.9531,55.8438 Q246.3281,55.8438 246.5625,56.1094 Q246.7969,56.3594 246.7969,56.9688 L246.7969,58.9375 Q246.7969,59.4844 246.6719,59.6719 Q246.4063,60.0625 245.9531,60.0625 Q245.4844,60.0625 245.2188,59.6563 Q245.0938,59.4688 245.0938,58.7969 L243.6094,58.7969 Z " fill="#000000"/><text fill="#000000" font-family="sans-serif" font-size="14" lengthAdjust="spacing" textLength="26" x="265.25" y="63.7285">Item</text><line style="stroke:#181818;stroke-width:0.5;" x1="60" x2="464" y1="74" y2="74"/><rect fill="none" height="6" style="stroke:#C82930;stroke-width:1.0;" width="6" x="67" y="85.3047"/><text fill="#000000" font-family="sans-serif" font-size="14" lengthAdjust="spacing" textLength="93" x="79" y="92.5332">final String text</text><line style="stroke:#181818;stroke-width:0.5;" x1="60" x2="464" y1="99.6094" y2="99.6094"/><text fill="#000000" font-family="sans-serif" font-size="14" lengthAdjust="spacing" textLength="260" x="79" y="118.1426">LIGHTING("&#1101;&#1083;&#1077;&#1082;&#1090;&#1088;&#1080;&#1095;&#1077;&#1089;&#1082;&#1086;&#1077; &#1086;&#1089;&#1074;&#1077;&#1097;&#1077;&#1085;&#1080;&#1077;"),</text><text fill="#000000" font-family="sans-serif" font-size="14" lengthAdjust="spacing" textLength="110" x="79" y="135.752">TV("&#1090;&#1077;&#1083;&#1077;&#1074;&#1080;&#1079;&#1086;&#1088;"),</text><text fill="#000000" font-family="sans-serif" font-size="14" lengthAdjust="spacing" textLength="380" x="79" y="153.3613">GRAMMAR_AND_ALGEBRA("&#1075;&#1088;&#1072;&#1084;&#1084;&#1072;&#1090;&#1080;&#1082;&#1072; &#1080; &#1072;&#1088;&#1080;&#1092;&#1084;&#1077;&#1090;&#1080;&#1082;&#1072;"),</text><text fill="#000000" font-family="sans-serif" font-size="14" lengthAdjust="spacing" textLength="120" x="79" y="170.9707">TASKS("&#1079;&#1072;&#1076;&#1072;&#1095;&#1082;&#1080;"),</text><text fill="#000000" font-family="sans-serif" font-size="14" lengthAdjust="spacing" textLength="162" x="79" y="188.5801">PROMISES("&#1086;&#1073;&#1077;&#1097;&#1072;&#1085;&#1080;&#1103;"),</text><text fill="#000000" font-family="sans-serif" font-size="14" lengthAdjust="spacing" textLength="125" x="79" y="206.1895">PHONE("&#1090;&#1077;&#1083;&#1077;&#1092;&#1086;&#1085;")</text><text fill="#000000" font-family="sans-serif" font-size="14" lengthAdjust="spacing" textLength="99" x="79" y="223.7988">Item(String text)</text><ellipse cx="70" cy="237.1797" fill="#84BE84" rx="3" ry="3" style="stroke:#038048;stroke-width:1.0;"/><text fill="#000000" font-family="sans-serif" font-size="14" lengthAdjust="spacing" textLength="98" x="79" y="241.4082">String getText()</text></g><!--class NamesRecord--><g id="elem_NamesRecord"><rect codeLine="157" fill="#F1F1F1" height="100.8281" id="NamesRecord" rx="2.5" ry="2.5" style="stroke:#181818;stroke-width:0.5;" width="121" x="500.5" y="94.5"/><ellipse cx="515.5" cy="110.5" fill="#F1F1F1" rx="11" ry="11" style="stroke:#181818;stroke-width:1.0;"/><path d="M513.6094,115.0625 Q513.3906,115.3281 513.25,115.4063 Q513.1094,115.4844 512.9219,115.4844 Q512.5313,115.4844 512.2813,115.2188 Q512.0469,114.9531 512.0469,114.3594 L512.0469,113.2031 Q512.0469,112.5938 512.2813,112.3438 Q512.5313,112.0781 512.9219,112.0781 Q513.2188,112.0781 513.4219,112.2344 Q513.625,112.3906 513.7344,112.7656 Q513.8438,113.125 513.9531,113.2656 Q514.2031,113.5156 514.8125,113.7813 Q515.4219,114.0469 516.1563,114.0469 Q517.2969,114.0469 518.0156,113.5156 Q518.4844,113.1875 518.4844,112.7188 Q518.4844,112.4063 518.2656,112.125 Q518.0469,111.8438 517.5313,111.6719 Q517.2031,111.5469 516.0469,111.3281 Q514.6563,111.0625 513.9375,110.7031 Q513.2188,110.3438 512.7969,109.6875 Q512.3906,109.0156 512.3906,108.2344 Q512.3906,107.0156 513.4063,106.1094 Q514.4375,105.1875 516.0781,105.1875 Q516.7344,105.1875 517.2813,105.3281 Q517.8438,105.4688 518.3125,105.7656 Q518.6406,105.4531 518.9688,105.4531 Q519.3438,105.4531 519.5781,105.7188 Q519.8125,105.9688 519.8125,106.5781 L519.8125,107.8594 Q519.8125,108.4688 519.5781,108.7344 Q519.3438,108.9844 518.9688,108.9844 Q518.6563,108.9844 518.4219,108.7969 Q518.2344,108.6563 518.1406,108.2344 Q518.0625,107.8125 517.9219,107.625 Q517.6719,107.3125 517.1875,107.1094 Q516.7188,106.8906 516.0781,106.8906 Q515.1563,106.8906 514.625,107.3125 Q514.0938,107.7344 514.0938,108.2031 Q514.0938,108.5156 514.3125,108.8125 Q514.5313,109.1094 514.9531,109.2813 Q515.2344,109.3906 516.5313,109.6563 Q517.8438,109.9063 518.5469,110.2188 Q519.25,110.5156 519.7188,111.1719 Q520.1875,111.8281 520.1875,112.7344 Q520.1875,114 519.2969,114.75 Q518.1094,115.75 516.2813,115.75 Q515.5781,115.75 514.9063,115.5781 Q514.25,115.4063 513.6094,115.0625 Z " fill="#000000"/><text fill="#000000" font-family="sans-serif" font-size="14" lengthAdjust="spacing" textLength="89" x="529.5" y="116.2285">NamesRecord</text><line style="stroke:#181818;stroke-width:0.5;" x1="501.5" x2="620.5" y1="126.5" y2="126.5"/><rect fill="none" height="6" style="stroke:#C82930;stroke-width:1.0;" width="6" x="508.5" y="137.8047"/><text fill="#000000" font-family="sans-serif" font-size="14" lengthAdjust="spacing" textLength="92" x="520.5" y="145.0332">String name_1</text><rect fill="none" height="6" style="stroke:#C82930;stroke-width:1.0;" width="6" x="508.5" y="155.4141"/><text fill="#000000" font-family="sans-serif" font-size="14" lengthAdjust="spacing" textLength="92" x="520.5" y="162.6426">String name_2</text><rect fill="none" height="6" style="stroke:#C82930;stroke-width:1.0;" width="6" x="508.5" y="173.0234"/><text fill="#000000" font-family="sans-serif" font-size="14" lengthAdjust="spacing" textLength="92" x="520.5" y="180.252">String name_3</text><line style="stroke:#181818;stroke-width:0.5;" x1="501.5" x2="620.5" y1="187.3281" y2="187.3281"/></g><!--class Task--><g id="elem_Task"><rect codeLine="164" fill="#F1F1F1" height="329.75" id="Task" rx="2.5" ry="2.5" style="stroke:#181818;stroke-width:0.5;" width="599" x="22.5" y="308"/><ellipse cx="302.25" cy="324" fill="#EB937F" rx="11" ry="11" style="stroke:#181818;stroke-width:1.0;"/><path d="M301.1094,324.7969 L301.1094,327.2969 L305.4375,327.2969 L305.4375,326.375 Q305.4375,325.7656 305.6719,325.5 Q305.9219,325.2344 306.2969,325.2344 Q306.6719,325.2344 306.9063,325.5 Q307.1406,325.7656 307.1406,326.375 L307.1406,329 L299.1406,329 Q298.5156,329 298.25,328.7656 Q298,328.5313 298,328.1406 Q298,327.7656 298.2656,327.5313 Q298.5313,327.2969 299.1406,327.2969 L299.4063,327.2969 L299.4063,320.6406 L299.1406,320.6406 Q298.5156,320.6406 298.25,320.4063 Q298,320.1719 298,319.7813 Q298,319.4063 298.25,319.1719 Q298.5156,318.9375 299.1406,318.9375 L306.7656,318.9375 L306.7656,321.5313 Q306.7656,322.1406 306.5313,322.4063 Q306.3125,322.6563 305.9219,322.6563 Q305.5469,322.6563 305.3125,322.4063 Q305.0781,322.1406 305.0781,321.5313 L305.0781,320.6406 L301.1094,320.6406 L301.1094,323.0938 L302.5938,323.0938 Q302.5938,322.4375 302.7188,322.25 Q302.9844,321.8438 303.4531,321.8438 Q303.8281,321.8438 304.0625,322.1094 Q304.2969,322.3594 304.2969,322.9688 L304.2969,324.9375 Q304.2969,325.4844 304.1719,325.6719 Q303.9063,326.0625 303.4531,326.0625 Q302.9844,326.0625 302.7188,325.6563 Q302.5938,325.4688 302.5938,324.7969 L301.1094,324.7969 Z " fill="#000000"/><text fill="#000000" font-family="sans-serif" font-size="14" lengthAdjust="spacing" textLength="31" x="322.75" y="329.7285">Task</text><line style="stroke:#181818;stroke-width:0.5;" x1="23.5" x2="620.5" y1="340" y2="340"/><rect fill="none" height="6" style="stroke:#C82930;stroke-width:1.0;" width="6" x="30.5" y="351.3047"/><text fill="#000000" font-family="sans-serif" font-size="14" lengthAdjust="spacing" textLength="93" x="42.5" y="358.5332">final String text</text><line style="stroke:#181818;stroke-width:0.5;" x1="23.5" x2="620.5" y1="365.6094" y2="365.6094"/><text fill="#000000" font-family="sans-serif" font-size="14" lengthAdjust="spacing" textLength="380" x="42.5" y="384.1426">MAKE_LIGHTING("&#1087;&#1088;&#1086;&#1074;&#1086;&#1076;&#1080;&#1090;&#1100; &#1101;&#1083;&#1077;&#1082;&#1090;&#1088;&#1080;&#1095;&#1077;&#1089;&#1082;&#1086;&#1077; &#1086;&#1089;&#1074;&#1077;&#1097;&#1077;&#1085;&#1080;&#1077;"),</text><text fill="#000000" font-family="sans-serif" font-size="14" lengthAdjust="spacing" textLength="239" x="42.5" y="401.752">MAKE_PHONE("&#1091;&#1089;&#1090;&#1088;&#1086;&#1080;&#1090;&#1100; &#1090;&#1077;&#1083;&#1077;&#1092;&#1086;&#1085;"),</text><text fill="#000000" font-family="sans-serif" font-size="14" lengthAdjust="spacing" textLength="156" x="42.5" y="419.3613">MAKE_TV("&#1090;&#1077;&#1083;&#1077;&#1074;&#1080;&#1079;&#1086;&#1088;"),</text><text fill="#000000" font-family="sans-serif" font-size="14" lengthAdjust="spacing" textLength="187" x="42.5" y="436.9707">GOT_SMARTER("&#1087;&#1086;&#1091;&#1084;&#1085;&#1077;&#1083;"),</text><text fill="#000000" font-family="sans-serif" font-size="14" lengthAdjust="spacing" textLength="232" x="42.5" y="454.5801">LEARN("&#1091;&#1095;&#1080;&#1090;&#1100;&#1089;&#1103; &#1095;&#1080;&#1090;&#1072;&#1090;&#1100; &#1080; &#1087;&#1080;&#1089;&#1072;&#1090;&#1100;"),</text><text fill="#000000" font-family="sans-serif" font-size="14" lengthAdjust="spacing" textLength="573" x="42.5" y="472.1895">READ_GRAMMAR_AND_ALGEBRA("&#1095;&#1080;&#1090;&#1072;&#1090;&#1100; &#1074;&#1089;&#1102; &#1075;&#1088;&#1072;&#1084;&#1084;&#1072;&#1090;&#1080;&#1082;&#1091; &#1080; &#1087;&#1086;&#1095;&#1090;&#1080; &#1074;&#1089;&#1102; &#1072;&#1088;&#1080;&#1092;&#1084;&#1077;&#1090;&#1080;&#1082;&#1091;"),</text><text fill="#000000" font-family="sans-serif" font-size="14" lengthAdjust="spacing" textLength="120" x="42.5" y="489.7988">TASKS("&#1079;&#1072;&#1076;&#1072;&#1095;&#1082;&#1080;"),</text><text fill="#000000" font-family="sans-serif" font-size="14" lengthAdjust="spacing" textLength="332" x="42.5" y="507.4082">WANT_LEARN_PHYSICS("&#1093;&#1086;&#1090;&#1077;&#1090;&#1100; &#1080;&#1079;&#1091;&#1095;&#1072;&#1090;&#1100; &#1092;&#1080;&#1079;&#1080;&#1082;&#1091;"),</text><text fill="#000000" font-family="sans-serif" font-size="14" lengthAdjust="spacing" textLength="248" x="42.5" y="525.0176">PROMISE("&#1085;&#1072;&#1086;&#1073;&#1077;&#1097;&#1072;&#1077;&#1090; &#1089; &#1090;&#1088;&#1080; &#1082;&#1086;&#1088;&#1086;&#1073;&#1072;"),</text><text fill="#000000" font-family="sans-serif" font-size="14" lengthAdjust="spacing" textLength="479" x="42.5" y="542.627">THAT_AND_MOUNTAINS("&#1089;&#1082;&#1072;&#1079;&#1072;&#1083;, &#1095;&#1090;&#1086; &#1089;&#1076;&#1077;&#1083;&#1072;&#1077;&#1090; &#1090;&#1086; &#1080; &#1101;&#1090;&#1086;, &#1080; &#1075;&#1086;&#1088;&#1099; &#1089;&#1074;&#1077;&#1088;&#1085;&#1105;&#1090;"),</text><text fill="#000000" font-family="sans-serif" font-size="14" lengthAdjust="spacing" textLength="279" x="42.5" y="560.2363">WORK_FULLY("&#1088;&#1072;&#1073;&#1086;&#1090;&#1072;&#1090;&#1100; &#1074; &#1087;&#1086;&#1083;&#1085;&#1091;&#1102; &#1089;&#1080;&#1083;&#1091;"),</text><text fill="#000000" font-family="sans-serif" font-size="14" lengthAdjust="spacing" textLength="209" x="42.5" y="577.8457">WANT_LEARN("&#1093;&#1086;&#1090;&#1077;&#1090;&#1100; &#1091;&#1095;&#1080;&#1090;&#1089;&#1103;"),</text><text fill="#000000" font-family="sans-serif" font-size="14" lengthAdjust="spacing" textLength="160" x="42.5" y="595.4551">DO_ALL_THIS("&#1074;&#1089;&#1105; &#1101;&#1090;&#1086;")</text><text fill="#000000" font-family="sans-serif" font-size="14" lengthAdjust="spacing" textLength="104" x="42.5" y="613.0645">Task(String text)</text><ellipse cx="33.5" cy="626.4453" fill="#84BE84" rx="3" ry="3" style="stroke:#038048;stroke-width:1.0;"/><text fill="#000000" font-family="sans-serif" font-size="14" lengthAdjust="spacing" textLength="98" x="42.5" y="630.6738">String getText()</text></g><!--class App--><g id="elem_App"><rect codeLine="2" fill="#F1F1F1" height="65.6094" id="App" rx="2.5" ry="2.5" style="stroke:#181818;stroke-width:0.5;" width="210" x="657" y="112"/><ellipse cx="745.25" cy="128" fill="#ADD1B2" rx="11" ry="11" style="stroke:#181818;stroke-width:1.0;"/><path d="M748.0156,123.875 Q748.1719,123.6563 748.3594,123.5469 Q748.5469,123.4375 748.7656,123.4375 Q749.1406,123.4375 749.375,123.7031 Q749.6094,123.9531 749.6094,124.5625 L749.6094,126.0156 Q749.6094,126.625 749.375,126.8906 Q749.1406,127.1563 748.7656,127.1563 Q748.4219,127.1563 748.2188,126.9531 Q748.0156,126.7656 747.9063,126.25 Q747.8594,125.8906 747.6719,125.7031 Q747.3438,125.3281 746.7344,125.1094 Q746.125,124.8906 745.5,124.8906 Q744.7344,124.8906 744.0938,125.2188 Q743.4688,125.5469 742.9688,126.2969 Q742.4844,127.0469 742.4844,128.0781 L742.4844,129.1719 Q742.4844,130.4063 743.375,131.2344 Q744.2656,132.0469 745.8594,132.0469 Q746.7969,132.0469 747.4531,131.7969 Q747.8438,131.6406 748.2656,131.2031 Q748.5313,130.9375 748.6719,130.8594 Q748.8281,130.7813 749.0313,130.7813 Q749.3594,130.7813 749.6094,131.0469 Q749.875,131.2969 749.875,131.6406 Q749.875,131.9844 749.5313,132.3906 Q749.0313,132.9688 748.2344,133.2969 Q747.1563,133.75 745.8594,133.75 Q744.3438,133.75 743.1406,133.125 Q742.1563,132.625 741.4688,131.5625 Q740.7813,130.4844 740.7813,129.2031 L740.7813,128.0469 Q740.7813,126.7188 741.3906,125.5781 Q742.0156,124.4219 743.1094,123.8125 Q744.2031,123.1875 745.4375,123.1875 Q746.1719,123.1875 746.8125,123.3594 Q747.4688,123.5156 748.0156,123.875 Z " fill="#000000"/><text fill="#000000" font-family="sans-serif" font-size="14" lengthAdjust="spacing" textLength="25" x="765.75" y="133.7285">App</text><line style="stroke:#181818;stroke-width:0.5;" x1="658" x2="866" y1="144" y2="144"/><line style="stroke:#181818;stroke-width:0.5;" x1="658" x2="866" y1="152" y2="152"/><ellipse cx="668" cy="166.3047" fill="#84BE84" rx="3" ry="3" style="stroke:#038048;stroke-width:1.0;"/><text fill="#000000" font-family="sans-serif" font-size="14" lengthAdjust="spacing" textLength="184" x="677" y="170.5332">static void main(String[] args)</text></g><!--class Exception--><g id="elem_Exception"><rect fill="#F1F1F1" height="48" id="Exception" rx="2.5" ry="2.5" style="stroke:#181818;stroke-width:0.5;" width="93" x="3414.5" y="982"/><ellipse cx="3429.5" cy="998" fill="#ADD1B2" rx="11" ry="11" style="stroke:#181818;stroke-width:1.0;"/><path d="M3432.2656,993.875 Q3432.4219,993.6563 3432.6094,993.5469 Q3432.7969,993.4375 3433.0156,993.4375 Q3433.3906,993.4375 3433.625,993.7031 Q3433.8594,993.9531 3433.8594,994.5625 L3433.8594,996.0156 Q3433.8594,996.625 3433.625,996.8906 Q3433.3906,997.1563 3433.0156,997.1563 Q3432.6719,997.1563 3432.4688,996.9531 Q3432.2656,996.7656 3432.1563,996.25 Q3432.1094,995.8906 3431.9219,995.7031 Q3431.5938,995.3281 3430.9844,995.1094 Q3430.375,994.8906 3429.75,994.8906 Q3428.9844,994.8906 3428.3438,995.2188 Q3427.7188,995.5469 3427.2188,996.2969 Q3426.7344,997.0469 3426.7344,998.0781 L3426.7344,999.1719 Q3426.7344,1000.4063 3427.625,1001.2344 Q3428.5156,1002.0469 3430.1094,1002.0469 Q3431.0469,1002.0469 3431.7031,1001.7969 Q3432.0938,1001.6406 3432.5156,1001.2031 Q3432.7813,1000.9375 3432.9219,1000.8594 Q3433.0781,1000.7813 3433.2813,1000.7813 Q3433.6094,1000.7813 3433.8594,1001.0469 Q3434.125,1001.2969 3434.125,1001.6406 Q3434.125,1001.9844 3433.7813,1002.3906 Q3433.2813,1002.9688 3432.4844,1003.2969 Q3431.4063,1003.75 3430.1094,1003.75 Q3428.5938,1003.75 3427.3906,1003.125 Q3426.4063,1002.625 3425.7188,1001.5625 Q3425.0313,1000.4844 3425.0313,999.2031 L3425.0313,998.0469 Q3425.0313,996.7188 3425.6406,995.5781 Q3426.2656,994.4219 3427.3594,993.8125 Q3428.4531,993.1875 3429.6875,993.1875 Q3430.4219,993.1875 3431.0625,993.3594 Q3431.7188,993.5156 3432.2656,993.875 Z " fill="#000000"/><text fill="#000000" font-family="sans-serif" font-size="14" lengthAdjust="spacing" textLength="61" x="3443.5" y="1003.7285">Exception</text><line style="stroke:#181818;stroke-width:0.5;" x1="3415.5" x2="3506.5" y1="1014" y2="1014"/><line style="stroke:#181818;stroke-width:0.5;" x1="3415.5" x2="3506.5" y1="1022" y2="1022"/></g><!--link App to FilledPlace--><g id="link_App_FilledPlace"><path codeLine="5" d="M737.08,178.13 C711.18,262.23 722.41,493.93 806,662 C820.46,691.06 833.6486,710.3471 858.1586,733.5671 " fill="none" id="App-to-FilledPlace" style="stroke:#AAAAAA;stroke-width:1.0;"/><polygon fill="none" points="866.87,741.82,865.2653,734.7897,858.1586,733.5671,859.7633,740.5973,866.87,741.82" style="stroke:#AAAAAA;stroke-width:1.0;"/></g><!--link App to FilledPlace--><g id="link_App_FilledPlace"><path codeLine="6" d="M753.85,178.13 C746.18,262.23 757.41,493.93 841,662 C855.46,691.06 868.9563,710.0339 891.7363,733.2539 " fill="none" id="App-to-FilledPlace-1" style="stroke:#AAAAAA;stroke-width:1.0;"/><polygon fill="none" points="900.14,741.82,898.7935,734.7357,891.7363,733.2539,893.0828,740.3382,900.14,741.82" style="stroke:#AAAAAA;stroke-width:1.0;"/></g><!--link App to FilledPlace--><g id="link_App_FilledPlace"><path codeLine="11" d="M770.61,178.13 C781.18,262.23 792.41,493.93 876,662 C890.46,691.06 904.3003,709.7095 925.3503,732.9295 " fill="none" id="App-to-FilledPlace-2" style="stroke:#AAAAAA;stroke-width:1.0;"/><polygon fill="none" points="933.41,741.82,932.3437,734.6882,925.3503,732.9295,926.4166,740.0613,933.41,741.82" style="stroke:#AAAAAA;stroke-width:1.0;"/></g><!--link App to FilledPlace--><g id="link_App_FilledPlace"><path codeLine="14" d="M787.37,178.13 C816.18,262.23 827.41,493.93 911,662 C925.46,691.06 939.6848,709.3755 959.0048,732.5955 " fill="none" id="App-to-FilledPlace-3" style="stroke:#AAAAAA;stroke-width:1.0;"/><polygon fill="none" points="966.68,741.82,965.9172,734.6494,959.0048,732.5955,959.7676,739.7661,966.68,741.82" style="stroke:#AAAAAA;stroke-width:1.0;"/></g><!--link App to RegularShortly--><g id="link_App_RegularShortly"><path codeLine="7" d="M867.27,153.2 C1023.64,165.58 1306.25,196.39 1381,264 C1517.64,387.6 1368.03,530.41 1497,662 C1550.53,716.62 1612.5461,747.6292 1686.2461,769.2692 " fill="none" id="App-to-RegularShortly" style="stroke:#AAAAAA;stroke-width:1.0;"/><polygon fill="none" points="1697.76,772.65,1693.13,767.1216,1686.2461,769.2692,1690.8761,774.7976,1697.76,772.65" style="stroke:#AAAAAA;stroke-width:1.0;"/></g><!--link App to RegularShortly--><g id="link_App_RegularShortly"><path codeLine="12" d="M867.08,151.56 C1031.41,162.74 1337.71,193.19 1416,264 C1552.64,387.6 1403.03,530.41 1532,662 C1577.24,708.16 1625.4694,735.843 1686.4094,757.613 " fill="none" id="App-to-RegularShortly-1" style="stroke:#AAAAAA;stroke-width:1.0;"/><polygon fill="none" points="1697.71,761.65,1693.4054,755.8647,1686.4094,757.613,1690.7141,763.3984,1697.71,761.65" style="stroke:#AAAAAA;stroke-width:1.0;"/></g><!--link App to MasterShorty--><g id="link_App_MasterShorty"><path codeLine="8" d="M867.31,148.66 C1048.86,155.47 1409.87,179.56 1499,264 C1630.38,388.46 1447.13,544.77 1585,662 C1644.42,712.52 2209.37,683.5 2286,698 C2330.04,706.33 2364.8312,715.4219 2408.3212,729.3419 " fill="none" id="App-to-MasterShorty" style="stroke:#AAAAAA;stroke-width:1.0;"/><polygon fill="none" points="2419.75,733,2415.2549,727.3613,2408.3212,729.3419,2412.8162,734.9806,2419.75,733" style="stroke:#AAAAAA;stroke-width:1.0;"/></g><!--link App to SlaveShorty--><g id="link_App_SlaveShorty"><path codeLine="9" d="M867.16,147.89 C1058.04,153.51 1450.37,175.78 1551,264 C1689.27,385.22 1518.88,549.08 1664,662 C1719.66,705.31 2863.34,686.95 2933,698 C2944.37,699.8 2944.1018,699.5533 2955.6918,701.8133 " fill="none" id="App-to-SlaveShorty" style="stroke:#AAAAAA;stroke-width:1.0;"/><polygon fill="none" points="2967.47,704.11,2962.3465,699.0356,2955.6918,701.8133,2960.8154,706.8877,2967.47,704.11" style="stroke:#AAAAAA;stroke-width:1.0;"/></g><!--link App to SlaveShorty--><g id="link_App_SlaveShorty"><path codeLine="10" d="M867.2,147.36 C1065.22,152.03 1481.85,172.7 1586,264 C1724.27,385.22 1553.88,549.08 1699,662 C1754.55,705.23 2882.0096,685.2612 2955.7096,696.1812 " fill="none" id="App-to-SlaveShorty-1" style="stroke:#AAAAAA;stroke-width:1.0;"/><polygon fill="none" points="2967.58,697.94,2962.2311,693.1038,2955.7096,696.1812,2961.0585,701.0174,2967.58,697.94" style="stroke:#AAAAAA;stroke-width:1.0;"/></g><!--link App to RegularPlace--><g id="link_App_RegularPlace"><path codeLine="13" d="M797.88,178.03 C820.06,199.97 847.05,230.97 862,264 C935.75,426.91 794.47,535.63 921,662 C998.87,739.77 1067.02,649.88 1166,698 C1199.62,714.34 1222.0966,734.7915 1243.4666,759.2615 " fill="none" id="App-to-RegularPlace" style="stroke:#AAAAAA;stroke-width:1.0;"/><polygon fill="none" points="1251.36,768.3,1250.4261,761.1496,1243.4666,759.2615,1244.4005,766.4119,1251.36,768.3" style="stroke:#AAAAAA;stroke-width:1.0;"/></g><!--reverse link AbstractShorty to MasterShorty--><g id="link_AbstractShorty_MasterShorty"><path d="M2258.0523,646.9832 C2272.6923,655.2532 2271.63,654.41 2286,662 C2333.1,686.88 2385.27,711.36 2434.05,732.98 " fill="none" id="AbstractShorty-backto-MasterShorty" style="stroke:#181818;stroke-width:1.0;"/><polygon fill="none" points="2242.38,638.13,2255.1013,652.2073,2261.0034,641.759,2242.38,638.13" style="stroke:#181818;stroke-width:1.0;"/></g><!--reverse link ICanSetTask to MasterShorty--><g id="link_ICanSetTask_MasterShorty"><path d="M2879.5087,531.3144 C2862.8287,571.4944 2840.54,616.7 2803,662 C2781.8,687.58 2755.49,711.7 2729.43,732.7 " fill="none" id="ICanSetTask-backto-MasterShorty" style="stroke:#181818;stroke-width:1.0;stroke-dasharray:7.0,7.0;"/><polygon fill="none" points="2886.41,514.69,2873.9672,529.014,2885.0501,533.6149,2886.41,514.69" style="stroke:#181818;stroke-width:1.0;"/></g><!--reverse link AbstractShorty to RegularShortly--><g id="link_AbstractShorty_RegularShortly"><path d="M1983,656.07 C1983,689.22 1983,704.56 1983,732.87 " fill="none" id="AbstractShorty-backto-RegularShortly" style="stroke:#181818;stroke-width:1.0;"/><polygon fill="none" points="1983,638.07,1977,656.07,1989,656.07,1983,638.07" style="stroke:#181818;stroke-width:1.0;"/></g><!--reverse link ICanDoSomething to RegularShortly--><g id="link_ICanDoSomething_RegularShortly"><path d="M2418.5665,578.7511 C2377.8665,610.7311 2344.73,634.28 2299,662 C2256.83,687.56 2209.48,711.75 2164.53,732.84 " fill="none" id="ICanDoSomething-backto-RegularShortly" style="stroke:#181818;stroke-width:1.0;stroke-dasharray:7.0,7.0;"/><polygon fill="none" points="2432.72,567.63,2414.8595,574.0333,2422.2735,583.4689,2432.72,567.63" style="stroke:#181818;stroke-width:1.0;"/></g><!--reverse link AbstractShorty to SlaveShorty--><g id="link_AbstractShorty_SlaveShorty"><path d="M2241.1261,645.6169 C2261.2961,654.9169 2265.48,655.55 2286,662 C2426.96,706.34 2804.36,672.96 2950,698 C2955.72,698.98 2961.47,700.02 2967.25,701.11 " fill="none" id="AbstractShorty-backto-SlaveShorty" style="stroke:#181818;stroke-width:1.0;"/><polygon fill="none" points="2224.78,638.08,2238.6138,651.0656,2243.6384,640.1682,2224.78,638.08" style="stroke:#181818;stroke-width:1.0;"/></g><!--reverse link ISlave to SlaveShorty--><g id="link_ISlave_SlaveShorty"><path d="M3355.2133,594.1764 C3350.1533,632.6564 3346.74,658.74 3341.58,697.97 " fill="none" id="ISlave-backto-SlaveShorty" style="stroke:#181818;stroke-width:1.0;stroke-dasharray:7.0,7.0;"/><polygon fill="none" points="3357.56,576.33,3349.2645,593.3941,3361.162,594.9586,3357.56,576.33" style="stroke:#181818;stroke-width:1.0;"/></g><!--link SlaveShorty to NotPermittedTaskException--><g id="link_SlaveShorty_NotPermittedTaskException"><path codeLine="69" d="M3301.85,922.3 C3299.13,980.29 3299.3783,1035.8684 3306.7083,1077.8984 " fill="none" id="SlaveShorty-to-NotPermittedTaskException" style="stroke:#AAAAAA;stroke-width:1.0;"/><polygon fill="none" points="3308.77,1089.72,3311.6797,1083.122,3306.7083,1077.8984,3303.7986,1084.4964,3308.77,1089.72" style="stroke:#AAAAAA;stroke-width:1.0;"/></g><!--link SlaveShorty to NotPermittedTaskException--><g id="link_SlaveShorty_NotPermittedTaskException"><path codeLine="70" d="M3327,922.3 C3327,980.29 3327,1035.69 3327,1077.72 " fill="none" id="SlaveShorty-to-NotPermittedTaskException-1" style="stroke:#AAAAAA;stroke-width:1.0;"/><polygon fill="none" points="3327,1089.72,3331,1083.72,3327,1077.72,3323,1083.72,3327,1089.72" style="stroke:#AAAAAA;stroke-width:1.0;"/></g><!--link SlaveShorty to NotPermittedTaskException--><g id="link_SlaveShorty_NotPermittedTaskException"><path codeLine="71" d="M3352.15,922.3 C3354.87,980.29 3354.6217,1035.8684 3347.2917,1077.8984 " fill="none" id="SlaveShorty-to-NotPermittedTaskException-2" style="stroke:#AAAAAA;stroke-width:1.0;"/><polygon fill="none" points="3345.23,1089.72,3350.2014,1084.4964,3347.2917,1077.8984,3342.3203,1083.122,3345.23,1089.72" style="stroke:#AAAAAA;stroke-width:1.0;"/></g><!--reverse link AbstractPlace to FilledPlace--><g id="link_AbstractPlace_FilledPlace"><path d="M1180.4871,572.8287 C1155.5171,605.2987 1137.58,628.37 1111,662 C1090.23,688.28 1067.13,716.95 1046.84,741.94 " fill="none" id="AbstractPlace-backto-FilledPlace" style="stroke:#181818;stroke-width:1.0;"/><polygon fill="none" points="1191.46,558.56,1175.7309,569.1711,1185.2434,576.4863,1191.46,558.56" style="stroke:#181818;stroke-width:1.0;"/></g><!--reverse link IHasItems to FilledPlace--><g id="link_IHasItems_FilledPlace"><path d="M1011.793,532.6939 C1007.743,589.1939 1001.67,674.07 996.8,741.97 " fill="none" id="IHasItems-backto-FilledPlace" style="stroke:#181818;stroke-width:1.0;stroke-dasharray:7.0,7.0;"/><polygon fill="none" points="1013.08,514.74,1005.8084,532.2649,1017.7777,533.1229,1013.08,514.74" style="stroke:#181818;stroke-width:1.0;"/></g><!--reverse link AbstractPlace to RegularPlace--><g id="link_AbstractPlace_RegularPlace"><path d="M1264.2572,576.4717 C1269.6672,643.5417 1275.54,716.4 1279.71,768.24 " fill="none" id="AbstractPlace-backto-RegularPlace" style="stroke:#181818;stroke-width:1.0;"/><polygon fill="none" points="1262.81,558.53,1258.2766,576.9541,1270.2378,575.9893,1262.81,558.53" style="stroke:#181818;stroke-width:1.0;"/></g><!--reverse link Exception to NotPermittedTaskException--><g id="link_Exception_NotPermittedTaskException"><path d="M3422.5627,1042.4273 C3404.3627,1059.1973 3392.56,1070.08 3371.09,1089.87 " fill="none" id="Exception-backto-NotPermittedTaskException" style="stroke:#181818;stroke-width:1.0;"/><polygon fill="none" points="3435.8,1030.23,3418.4969,1038.0148,3426.6284,1046.8397,3435.8,1030.23" style="stroke:#181818;stroke-width:1.0;"/></g><!--SRC=[lLZhJjj85FxlfvY57vk8f8AsFxULl10W8XUKfBkggYeQue6uTUoiPr90LIKkkqAhtRRgcm1TH5IMz1NiDzfpndPi1oSau4MLKiyvPxvpFpC3Rr63aGxT8qyN5nV9hgw9jj8oAET4xNR9UsM12ohq5dbdwHh8wMQcBcpTt7drcb1xXsUL3meAvlEQjMk-cbTLzNNU8bs3jXX_jAeR1jCsSU59HOIcax88Rrksq46indPw1hNhk3Rsa_26ecNA1VCazoT1rWtwZaN5ffNxV_tmyNp1SO09Md_yuVdI8fdaoOXoXMvnOTEM85xEXtAgJ_USXZh8LsY7yHfhMRP6JFXMye6Cr4qCgmM5OfbANZS1hcVRp1HDb2JFo9Ao44VqgqWYDPTo9Bfy75y-oP5aJTb9e7VQb639M1JP49mPh2LMTPiBZ4ycJgz3j4mjWT5ew_QG7jUmmqJ9LnBP5DB6skFR3VjZ2hj07LAsBCjWr2JijnurUAQwzGQC8PPeCzlx1XdCNflozhAboJq-hh2yZmnslAACb4kquGZR4ypKnXUJtkaQh0FL4H41hSpUbWLTNAPcdOa6vM-nxkJ_0dwKXQYMD0eeHuRWsV7ezzizTKd5uOAy8oqJPSZl7P-Hc8juYwUHZHMhRdMOQACJS2B45QJKoUD1xxHfbauEkW9EEbkiM0tqCunvZWHytMmPFOqrmupv6cn6UGnfMpTrtau5wasFtykcX0A9d6RthWw9XMqQcm0TkL3oWPKz4-nxopGu2RPXyC3PKQEcPdM83PO-8oRR9Hv13fpGl7IQFC6qyMfIWfcXxPDnvG3mubQ19Acju4H8grg9QDlMBYSLIsmokwCBmJI4AUorM5SUvEcLymowxbdljslwe2GsmiWLZ0No_D5ug5k1qiAP5aWPjkQKiporqPVUv4jhy6bic_OCGUxgObQv0J6pSmaOCxe523Z1RyzhU6CQkI6CkqbC0HiCzt6pwE56qGDEeWSRHFSkqDjLf531Tr0oQubFeGABTUIfwZz_uwSgN4GYfwuo7-D6p-UiCXy-c2JNVoCDjIGygD9-FjrymG_lOudUHIvZFZ_QhUkK5mNhS0o2QjjqlwHpyHEIdXDTChoRrWWFZOnO40-ITmsXceQY6VoHKC2Gtn0RoK2dTItf4Nh3sUWVDIPx6xuqaWnBr1JEiydn6UTLebEX2zESmKEVGWeuCbOyyAh3EASxSSVA7ittZPcz3i4VS0NDVA-KYclhZM9bBJFdVdIkd0ldctla7ZXzzyIvS0-TRyx0kI3E03xFWV0d25mxVUTYBfjJ6h_0fYEWuBPpe5w2t05orcfgkQpMccfbfQcMrWe_rzJCdFCLS4-TV-7VAMph0_OfSVe4LgZlTw1V17G9hzOtwh3j4ZRz0q8dmEWZOxDMBHVh1UGDd3DfrIbQvNwMtFLgfH0Q1hW3vtekg-HXR54Z6B028YmpbOaGOe5h0C6F6XHK3thKYrlqJrZnIT5SYYyVnvTFHZFW7xLbTQFG3DFWV8Tm322U0_2w3yducyoS6GaP1EBOFPGR1m7QI6HyyGdPh3QQTKXder13yu1y3BcwHb5abmfghIBrd7WQGDzduYqmqw0Ii_mTreVU6dVL2kfACx5EuZlF0UqJkLaxxh6FEd1Fa3AKl55Dxl74QlfLhJIQqWU8sCjwSHcat3y0zWW1fF7EfNJEimYWCJP3OByQ0VeQeCE2XCt4FIHUpWYcI-RWp2_kTRKXtIvNNrGQQh62MZ6ffzB2gnoHRWq00ip5fFY8I0CyzoD-vMGClYAq-nVnA-70kNQ_k4VIjsfjexdwebHw2UWOm3FfLn1Q6Jw0lWRtFk7sldFbEHK6PIGOmomVUjssKeN4bPgDzI865rFmnRSjkUNa1VBsbliF]--></g></svg>